<svg xmlns="http://www.w3.org/2000/svg" xmlns:xlink="http://www.w3.org/1999/xlink" width="500" zoomAndPan="magnify" viewBox="0 0 375 374.999991" height="500" preserveAspectRatio="xMidYMid meet" version="1.0"><defs><clipPath id="386b0eaf00"><path d="M 268 9 L 347 9 L 347 107 L 268 107 Z M 268 9 " clip-rule="nonzero"/></clipPath><clipPath id="885adf2e15"><path d="M 258.660156 23.28125 L 320.367188 -0.128906 L 355.746094 93.136719 L 294.039062 116.546875 Z M 258.660156 23.28125 " clip-rule="nonzero"/></clipPath><clipPath id="a3398f9a19"><path d="M 258.660156 23.28125 L 320.367188 -0.128906 L 355.746094 93.136719 L 294.039062 116.546875 Z M 258.660156 23.28125 " clip-rule="nonzero"/></clipPath><clipPath id="04721b2a15"><path d="M 277 31 L 327 31 L 327 58 L 277 58 Z M 277 31 " clip-rule="nonzero"/></clipPath><clipPath id="40aff98343"><path d="M 258.660156 23.28125 L 320.367188 -0.128906 L 355.746094 93.136719 L 294.039062 116.546875 Z M 258.660156 23.28125 " clip-rule="nonzero"/></clipPath><clipPath id="baab9a14a9"><path d="M 258.660156 23.28125 L 320.367188 -0.128906 L 355.746094 93.136719 L 294.039062 116.546875 Z M 258.660156 23.28125 " clip-rule="nonzero"/></clipPath><clipPath id="f41602509b"><path d="M 281 26 L 315 26 L 315 50 L 281 50 Z M 281 26 " clip-rule="nonzero"/></clipPath><clipPath id="5f9f9a28fa"><path d="M 258.660156 23.28125 L 320.367188 -0.128906 L 355.746094 93.136719 L 294.039062 116.546875 Z M 258.660156 23.28125 " clip-rule="nonzero"/></clipPath><clipPath id="d6d3607aac"><path d="M 258.660156 23.28125 L 320.367188 -0.128906 L 355.746094 93.136719 L 294.039062 116.546875 Z M 258.660156 23.28125 " clip-rule="nonzero"/></clipPath><clipPath id="3b0ef1ae73"><path d="M 228 111 L 344 111 L 344 226 L 228 226 Z M 228 111 " clip-rule="nonzero"/></clipPath><clipPath id="1d472bd1ca"><path d="M 255.261719 86.703125 L 367.84375 138.074219 L 316.472656 250.65625 L 203.890625 199.285156 Z M 255.261719 86.703125 " clip-rule="nonzero"/></clipPath><clipPath id="c74cf48a29"><path d="M 255.261719 86.703125 L 367.84375 138.074219 L 316.472656 250.65625 L 203.890625 199.285156 Z M 255.261719 86.703125 " clip-rule="nonzero"/></clipPath><clipPath id="e611dbd313"><path d="M 262 145 L 315 145 L 315 181 L 262 181 Z M 262 145 " clip-rule="nonzero"/></clipPath><clipPath id="23c5def31e"><path d="M 255.261719 86.703125 L 367.84375 138.074219 L 316.472656 250.65625 L 203.890625 199.285156 Z M 255.261719 86.703125 " clip-rule="nonzero"/></clipPath><clipPath id="cfd4eb2d8b"><path d="M 255.261719 86.703125 L 367.84375 138.074219 L 316.472656 250.65625 L 203.890625 199.285156 Z M 255.261719 86.703125 " clip-rule="nonzero"/></clipPath><clipPath id="f18bb8a89d"><path d="M 248 155 L 318 155 L 318 194 L 248 194 Z M 248 155 " clip-rule="nonzero"/></clipPath><clipPath id="de5b16e2d8"><path d="M 255.261719 86.703125 L 367.84375 138.074219 L 316.472656 250.65625 L 203.890625 199.285156 Z M 255.261719 86.703125 " clip-rule="nonzero"/></clipPath><clipPath id="f7f3bcb0a1"><path d="M 255.261719 86.703125 L 367.84375 138.074219 L 316.472656 250.65625 L 203.890625 199.285156 Z M 255.261719 86.703125 " clip-rule="nonzero"/></clipPath><clipPath id="79ee6bd277"><path d="M 266 149 L 311 149 L 311 177 L 266 177 Z M 266 149 " clip-rule="nonzero"/></clipPath><clipPath id="8629032cb7"><path d="M 255.261719 86.703125 L 367.84375 138.074219 L 316.472656 250.65625 L 203.890625 199.285156 Z M 255.261719 86.703125 " clip-rule="nonzero"/></clipPath><clipPath id="d01ea7801f"><path d="M 255.261719 86.703125 L 367.84375 138.074219 L 316.472656 250.65625 L 203.890625 199.285156 Z M 255.261719 86.703125 " clip-rule="nonzero"/></clipPath><clipPath id="14512d802c"><path d="M 273 164 L 298 164 L 298 180 L 273 180 Z M 273 164 " clip-rule="nonzero"/></clipPath><clipPath id="78db2d4a1e"><path d="M 255.261719 86.703125 L 367.84375 138.074219 L 316.472656 250.65625 L 203.890625 199.285156 Z M 255.261719 86.703125 " clip-rule="nonzero"/></clipPath><clipPath id="088d93c4b2"><path d="M 255.261719 86.703125 L 367.84375 138.074219 L 316.472656 250.65625 L 203.890625 199.285156 Z M 255.261719 86.703125 " clip-rule="nonzero"/></clipPath><clipPath id="283d0edc35"><path d="M 189 284.277344 L 351 284.277344 L 351 369.777344 L 189 369.777344 Z M 189 284.277344 " clip-rule="nonzero"/></clipPath><clipPath id="cdc804ef92"><path d="M 20 47 L 74 47 L 74 101 L 20 101 Z M 20 47 " clip-rule="nonzero"/></clipPath><clipPath id="351fa5b322"><path d="M 27.257812 37.5 L 83.332031 54.164062 L 66.667969 110.242188 L 10.59375 93.578125 Z M 27.257812 37.5 " clip-rule="nonzero"/></clipPath><clipPath id="13fc2bfb52"><path d="M 27.257812 37.5 L 83.332031 54.164062 L 66.667969 110.242188 L 10.59375 93.578125 Z M 27.257812 37.5 " clip-rule="nonzero"/></clipPath><clipPath id="d2997663f8"><path d="M 32 59 L 65 59 L 65 80 L 32 80 Z M 32 59 " clip-rule="nonzero"/></clipPath><clipPath id="14d311eb78"><path d="M 27.257812 37.5 L 83.332031 54.164062 L 66.667969 110.242188 L 10.59375 93.578125 Z M 27.257812 37.5 " clip-rule="nonzero"/></clipPath><clipPath id="54a0633fba"><path d="M 27.257812 37.5 L 83.332031 54.164062 L 66.667969 110.242188 L 10.59375 93.578125 Z M 27.257812 37.5 " clip-rule="nonzero"/></clipPath><clipPath id="8cc1908772"><path d="M 35 62 L 62 62 L 62 77 L 35 77 Z M 35 62 " clip-rule="nonzero"/></clipPath><clipPath id="50d6fdecce"><path d="M 27.257812 37.5 L 83.332031 54.164062 L 66.667969 110.242188 L 10.59375 93.578125 Z M 27.257812 37.5 " clip-rule="nonzero"/></clipPath><clipPath id="b6df247aec"><path d="M 27.257812 37.5 L 83.332031 54.164062 L 66.667969 110.242188 L 10.59375 93.578125 Z M 27.257812 37.5 " clip-rule="nonzero"/></clipPath><clipPath id="f90bdb5252"><path d="M 23 68 L 68 68 L 68 89 L 23 89 Z M 23 68 " clip-rule="nonzero"/></clipPath><clipPath id="471e7e8e75"><path d="M 27.257812 37.5 L 83.332031 54.164062 L 66.667969 110.242188 L 10.59375 93.578125 Z M 27.257812 37.5 " clip-rule="nonzero"/></clipPath><clipPath id="a8ffdb84de"><path d="M 27.257812 37.5 L 83.332031 54.164062 L 66.667969 110.242188 L 10.59375 93.578125 Z M 27.257812 37.5 " clip-rule="nonzero"/></clipPath><clipPath id="02a2731163"><path d="M 31 74 L 60 74 L 60 87 L 31 87 Z M 31 74 " clip-rule="nonzero"/></clipPath><clipPath id="94db1b5c48"><path d="M 27.257812 37.5 L 83.332031 54.164062 L 66.667969 110.242188 L 10.59375 93.578125 Z M 27.257812 37.5 " clip-rule="nonzero"/></clipPath><clipPath id="b8c263d1db"><path d="M 27.257812 37.5 L 83.332031 54.164062 L 66.667969 110.242188 L 10.59375 93.578125 Z M 27.257812 37.5 " clip-rule="nonzero"/></clipPath><clipPath id="1e73ea16be"><path d="M 88 149 L 235 149 L 235 300 L 88 300 Z M 88 149 " clip-rule="nonzero"/></clipPath><clipPath id="69843d5405"><path d="M 123.960938 119.398438 L 278 174.203125 L 230.488281 307.753906 L 76.445312 252.949219 Z M 123.960938 119.398438 " clip-rule="nonzero"/></clipPath><clipPath id="ada5f8902a"><path d="M 123.960938 119.398438 L 278 174.203125 L 230.488281 307.753906 L 76.445312 252.949219 Z M 123.960938 119.398438 " clip-rule="nonzero"/></clipPath><clipPath id="00067d3d47"><path d="M 136 205 L 208 205 L 208 254 L 136 254 Z M 136 205 " clip-rule="nonzero"/></clipPath><clipPath id="c60ab16526"><path d="M 123.960938 119.398438 L 278 174.203125 L 230.488281 307.753906 L 76.445312 252.949219 Z M 123.960938 119.398438 " clip-rule="nonzero"/></clipPath><clipPath id="e59fc0a1c8"><path d="M 123.960938 119.398438 L 278 174.203125 L 230.488281 307.753906 L 76.445312 252.949219 Z M 123.960938 119.398438 " clip-rule="nonzero"/></clipPath><clipPath id="2f955ad343"><path d="M 115 224 L 214 224 L 214 274 L 115 274 Z M 115 224 " clip-rule="nonzero"/></clipPath><clipPath id="8310a2d79f"><path d="M 123.960938 119.398438 L 278 174.203125 L 230.488281 307.753906 L 76.445312 252.949219 Z M 123.960938 119.398438 " clip-rule="nonzero"/></clipPath><clipPath id="43ec71a57a"><path d="M 123.960938 119.398438 L 278 174.203125 L 230.488281 307.753906 L 76.445312 252.949219 Z M 123.960938 119.398438 " clip-rule="nonzero"/></clipPath><clipPath id="233fcabadb"><path d="M 142 212 L 201 212 L 201 256 L 142 256 Z M 142 212 " clip-rule="nonzero"/></clipPath><clipPath id="21ac7d1ad9"><path d="M 123.960938 119.398438 L 278 174.203125 L 230.488281 307.753906 L 76.445312 252.949219 Z M 123.960938 119.398438 " clip-rule="nonzero"/></clipPath><clipPath id="900baaf6bd"><path d="M 123.960938 119.398438 L 278 174.203125 L 230.488281 307.753906 L 76.445312 252.949219 Z M 123.960938 119.398438 " clip-rule="nonzero"/></clipPath><clipPath id="3f2abe9c56"><path d="M 150 192 L 209 192 L 209 218 L 150 218 Z M 150 192 " clip-rule="nonzero"/></clipPath><clipPath id="05a7212659"><path d="M 123.960938 119.398438 L 278 174.203125 L 230.488281 307.753906 L 76.445312 252.949219 Z M 123.960938 119.398438 " clip-rule="nonzero"/></clipPath><clipPath id="2b928d23d8"><path d="M 123.960938 119.398438 L 278 174.203125 L 230.488281 307.753906 L 76.445312 252.949219 Z M 123.960938 119.398438 " clip-rule="nonzero"/></clipPath><clipPath id="537448b5e4"><path d="M 234 226 L 291 226 L 291 284 L 234 284 Z M 234 226 " clip-rule="nonzero"/></clipPath><clipPath id="ace09a9172"><path d="M 224.835938 231.878906 L 285.355469 217.300781 L 299.933594 277.820312 L 239.410156 292.398438 Z M 224.835938 231.878906 " clip-rule="nonzero"/></clipPath><clipPath id="b448867c13"><path d="M 224.835938 231.878906 L 285.355469 217.300781 L 299.933594 277.820312 L 239.410156 292.398438 Z M 224.835938 231.878906 " clip-rule="nonzero"/></clipPath><clipPath id="be963ed8a2"><path d="M 244 239 L 279 239 L 279 261 L 244 261 Z M 244 239 " clip-rule="nonzero"/></clipPath><clipPath id="0feeb00747"><path d="M 224.835938 231.878906 L 285.355469 217.300781 L 299.933594 277.820312 L 239.410156 292.398438 Z M 224.835938 231.878906 " clip-rule="nonzero"/></clipPath><clipPath id="6703363f2e"><path d="M 224.835938 231.878906 L 285.355469 217.300781 L 299.933594 277.820312 L 239.410156 292.398438 Z M 224.835938 231.878906 " clip-rule="nonzero"/></clipPath><clipPath id="c1eecff8b8"><path d="M 247 242 L 275 242 L 275 257 L 247 257 Z M 247 242 " clip-rule="nonzero"/></clipPath><clipPath id="70baf16128"><path d="M 224.835938 231.878906 L 285.355469 217.300781 L 299.933594 277.820312 L 239.410156 292.398438 Z M 224.835938 231.878906 " clip-rule="nonzero"/></clipPath><clipPath id="01cef768bf"><path d="M 224.835938 231.878906 L 285.355469 217.300781 L 299.933594 277.820312 L 239.410156 292.398438 Z M 224.835938 231.878906 " clip-rule="nonzero"/></clipPath><clipPath id="00da3e423b"><path d="M 239 250 L 288 250 L 288 270 L 239 270 Z M 239 250 " clip-rule="nonzero"/></clipPath><clipPath id="272b7cd228"><path d="M 224.835938 231.878906 L 285.355469 217.300781 L 299.933594 277.820312 L 239.410156 292.398438 Z M 224.835938 231.878906 " clip-rule="nonzero"/></clipPath><clipPath id="2e0d757cd1"><path d="M 224.835938 231.878906 L 285.355469 217.300781 L 299.933594 277.820312 L 239.410156 292.398438 Z M 224.835938 231.878906 " clip-rule="nonzero"/></clipPath><clipPath id="c1e3c7312d"><path d="M 248 256 L 280 256 L 280 269 L 248 269 Z M 248 256 " clip-rule="nonzero"/></clipPath><clipPath id="39c46aeb45"><path d="M 224.835938 231.878906 L 285.355469 217.300781 L 299.933594 277.820312 L 239.410156 292.398438 Z M 224.835938 231.878906 " clip-rule="nonzero"/></clipPath><clipPath id="1609f1652f"><path d="M 224.835938 231.878906 L 285.355469 217.300781 L 299.933594 277.820312 L 239.410156 292.398438 Z M 224.835938 231.878906 " clip-rule="nonzero"/></clipPath><clipPath id="a4b9c15118"><path d="M 64 102 L 144 102 L 144 182 L 64 182 Z M 64 102 " clip-rule="nonzero"/></clipPath><clipPath id="9ffc3c6878"><path d="M 42.273438 122.796875 L 122.597656 80.5625 L 164.828125 160.886719 L 84.503906 203.121094 Z M 42.273438 122.796875 " clip-rule="nonzero"/></clipPath><clipPath id="63a024ab88"><path d="M 42.273438 122.796875 L 122.597656 80.5625 L 164.828125 160.886719 L 84.503906 203.121094 Z M 42.273438 122.796875 " clip-rule="nonzero"/></clipPath><clipPath id="a1b71af5b6"><path d="M 82 123 L 121 123 L 121 152 L 82 152 Z M 82 123 " clip-rule="nonzero"/></clipPath><clipPath id="5864b1e5a0"><path d="M 42.273438 122.796875 L 122.597656 80.5625 L 164.828125 160.886719 L 84.503906 203.121094 Z M 42.273438 122.796875 " clip-rule="nonzero"/></clipPath><clipPath id="a9f211f2ae"><path d="M 42.273438 122.796875 L 122.597656 80.5625 L 164.828125 160.886719 L 84.503906 203.121094 Z M 42.273438 122.796875 " clip-rule="nonzero"/></clipPath><clipPath id="189f942825"><path d="M 81 130 L 131 130 L 131 162 L 81 162 Z M 81 130 " clip-rule="nonzero"/></clipPath><clipPath id="e10beab220"><path d="M 42.273438 122.796875 L 122.597656 80.5625 L 164.828125 160.886719 L 84.503906 203.121094 Z M 42.273438 122.796875 " clip-rule="nonzero"/></clipPath><clipPath id="d4cac72ddd"><path d="M 42.273438 122.796875 L 122.597656 80.5625 L 164.828125 160.886719 L 84.503906 203.121094 Z M 42.273438 122.796875 " clip-rule="nonzero"/></clipPath><clipPath id="ca364672a9"><path d="M 85 126 L 118 126 L 118 149 L 85 149 Z M 85 126 " clip-rule="nonzero"/></clipPath><clipPath id="3103b5ae3f"><path d="M 42.273438 122.796875 L 122.597656 80.5625 L 164.828125 160.886719 L 84.503906 203.121094 Z M 42.273438 122.796875 " clip-rule="nonzero"/></clipPath><clipPath id="03b6ae9209"><path d="M 42.273438 122.796875 L 122.597656 80.5625 L 164.828125 160.886719 L 84.503906 203.121094 Z M 42.273438 122.796875 " clip-rule="nonzero"/></clipPath><clipPath id="c1bbaf841b"><path d="M 95 137 L 114 137 L 114 150 L 95 150 Z M 95 137 " clip-rule="nonzero"/></clipPath><clipPath id="08ad6b8437"><path d="M 42.273438 122.796875 L 122.597656 80.5625 L 164.828125 160.886719 L 84.503906 203.121094 Z M 42.273438 122.796875 " clip-rule="nonzero"/></clipPath><clipPath id="f415c12eab"><path d="M 42.273438 122.796875 L 122.597656 80.5625 L 164.828125 160.886719 L 84.503906 203.121094 Z M 42.273438 122.796875 " clip-rule="nonzero"/></clipPath><clipPath id="97333202f8"><path d="M 105 285 L 184 285 L 184 368 L 105 368 Z M 105 285 " clip-rule="nonzero"/></clipPath><clipPath id="bbed6038dc"><path d="M 95.097656 298.710938 L 167.527344 274.085938 L 193.359375 350.066406 L 120.929688 374.691406 Z M 95.097656 298.710938 " clip-rule="nonzero"/></clipPath><clipPath id="53f4f8b107"><path d="M 95.097656 298.710938 L 167.527344 274.085938 L 193.359375 350.066406 L 120.929688 374.691406 Z M 95.097656 298.710938 " clip-rule="nonzero"/></clipPath><clipPath id="9a7498080d"><path d="M 126 309 L 159 309 L 159 331 L 126 331 Z M 126 309 " clip-rule="nonzero"/></clipPath><clipPath id="16b49c1940"><path d="M 95.097656 298.710938 L 167.527344 274.085938 L 193.359375 350.066406 L 120.929688 374.691406 Z M 95.097656 298.710938 " clip-rule="nonzero"/></clipPath><clipPath id="e7fe3ffe9c"><path d="M 95.097656 298.710938 L 167.527344 274.085938 L 193.359375 350.066406 L 120.929688 374.691406 Z M 95.097656 298.710938 " clip-rule="nonzero"/></clipPath><clipPath id="62b391e172"><path d="M 123 317 L 168 317 L 168 340 L 123 340 Z M 123 317 " clip-rule="nonzero"/></clipPath><clipPath id="2df1278e59"><path d="M 95.097656 298.710938 L 167.527344 274.085938 L 193.359375 350.066406 L 120.929688 374.691406 Z M 95.097656 298.710938 " clip-rule="nonzero"/></clipPath><clipPath id="75c2022afe"><path d="M 95.097656 298.710938 L 167.527344 274.085938 L 193.359375 350.066406 L 120.929688 374.691406 Z M 95.097656 298.710938 " clip-rule="nonzero"/></clipPath><clipPath id="dae7bff41a"><path d="M 130 322 L 162 322 L 162 338 L 130 338 Z M 130 322 " clip-rule="nonzero"/></clipPath><clipPath id="2a69081cd2"><path d="M 95.097656 298.710938 L 167.527344 274.085938 L 193.359375 350.066406 L 120.929688 374.691406 Z M 95.097656 298.710938 " clip-rule="nonzero"/></clipPath><clipPath id="ae72489681"><path d="M 95.097656 298.710938 L 167.527344 274.085938 L 193.359375 350.066406 L 120.929688 374.691406 Z M 95.097656 298.710938 " clip-rule="nonzero"/></clipPath><clipPath id="abf7241273"><path d="M 129 312 L 156 312 L 156 328 L 129 328 Z M 129 312 " clip-rule="nonzero"/></clipPath><clipPath id="9575b51b94"><path d="M 95.097656 298.710938 L 167.527344 274.085938 L 193.359375 350.066406 L 120.929688 374.691406 Z M 95.097656 298.710938 " clip-rule="nonzero"/></clipPath><clipPath id="41b9d7c21f"><path d="M 95.097656 298.710938 L 167.527344 274.085938 L 193.359375 350.066406 L 120.929688 374.691406 Z M 95.097656 298.710938 " clip-rule="nonzero"/></clipPath><clipPath id="4e3bca9129"><path d="M 7 242 L 101 242 L 101 366 L 7 366 Z M 7 242 " clip-rule="nonzero"/></clipPath><clipPath id="074b69e0b7"><path d="M 31.882812 232.757812 L 110.558594 254.972656 L 76.726562 374.789062 L -1.949219 352.574219 Z M 31.882812 232.757812 " clip-rule="nonzero"/></clipPath><clipPath id="4cad77dba5"><path d="M 31.882812 232.757812 L 110.558594 254.972656 L 76.726562 374.789062 L -1.949219 352.574219 Z M 31.882812 232.757812 " clip-rule="nonzero"/></clipPath><clipPath id="32e8024b7b"><path d="M 27 272 L 91 272 L 91 300 L 27 300 Z M 27 272 " clip-rule="nonzero"/></clipPath><clipPath id="76ba72d0fd"><path d="M 31.882812 232.757812 L 110.558594 254.972656 L 76.726562 374.789062 L -1.949219 352.574219 Z M 31.882812 232.757812 " clip-rule="nonzero"/></clipPath><clipPath id="5fd2938489"><path d="M 31.882812 232.757812 L 110.558594 254.972656 L 76.726562 374.789062 L -1.949219 352.574219 Z M 31.882812 232.757812 " clip-rule="nonzero"/></clipPath><clipPath id="5e8ef59cf8"><path d="M 42 265 L 84 265 L 84 292 L 42 292 Z M 42 265 " clip-rule="nonzero"/></clipPath><clipPath id="fce0b75ab4"><path d="M 31.882812 232.757812 L 110.558594 254.972656 L 76.726562 374.789062 L -1.949219 352.574219 Z M 31.882812 232.757812 " clip-rule="nonzero"/></clipPath><clipPath id="f2168cfd26"><path d="M 31.882812 232.757812 L 110.558594 254.972656 L 76.726562 374.789062 L -1.949219 352.574219 Z M 31.882812 232.757812 " clip-rule="nonzero"/></clipPath><clipPath id="b86c442f5b"><path d="M 141 6 L 269 6 L 269 146 L 141 146 Z M 141 6 " clip-rule="nonzero"/></clipPath><clipPath id="7510d813ee"><path d="M 151.859375 -3.070312 L 278.40625 17.753906 L 256.484375 150.960938 L 129.9375 130.136719 Z M 151.859375 -3.070312 " clip-rule="nonzero"/></clipPath><clipPath id="79dfc16ad8"><path d="M 151.859375 -3.070312 L 278.40625 17.753906 L 256.484375 150.960938 L 129.9375 130.136719 Z M 151.859375 -3.070312 " clip-rule="nonzero"/></clipPath><clipPath id="3977c68b30"><path d="M 177 50 L 234 50 L 234 82 L 177 82 Z M 177 50 " clip-rule="nonzero"/></clipPath><clipPath id="0876da76f4"><path d="M 151.859375 -3.070312 L 278.40625 17.753906 L 256.484375 150.960938 L 129.9375 130.136719 Z M 151.859375 -3.070312 " clip-rule="nonzero"/></clipPath><clipPath id="7ea61bad7d"><path d="M 151.859375 -3.070312 L 278.40625 17.753906 L 256.484375 150.960938 L 129.9375 130.136719 Z M 151.859375 -3.070312 " clip-rule="nonzero"/></clipPath><clipPath id="d1645f332a"><path d="M 164 68 L 242 68 L 242 95 L 164 95 Z M 164 68 " clip-rule="nonzero"/></clipPath><clipPath id="cd5a23c0c0"><path d="M 151.859375 -3.070312 L 278.40625 17.753906 L 256.484375 150.960938 L 129.9375 130.136719 Z M 151.859375 -3.070312 " clip-rule="nonzero"/></clipPath><clipPath id="820f97d9d3"><path d="M 151.859375 -3.070312 L 278.40625 17.753906 L 256.484375 150.960938 L 129.9375 130.136719 Z M 151.859375 -3.070312 " clip-rule="nonzero"/></clipPath><clipPath id="6a7f3d8c20"><path d="M 175 75 L 231 75 L 231 96 L 175 96 Z M 175 75 " clip-rule="nonzero"/></clipPath><clipPath id="a3d28640e1"><path d="M 151.859375 -3.070312 L 278.40625 17.753906 L 256.484375 150.960938 L 129.9375 130.136719 Z M 151.859375 -3.070312 " clip-rule="nonzero"/></clipPath><clipPath id="067706bb3b"><path d="M 151.859375 -3.070312 L 278.40625 17.753906 L 256.484375 150.960938 L 129.9375 130.136719 Z M 151.859375 -3.070312 " clip-rule="nonzero"/></clipPath><clipPath id="61dec69f8b"><path d="M 183 55 L 228 55 L 228 77 L 183 77 Z M 183 55 " clip-rule="nonzero"/></clipPath><clipPath id="36f650e3f7"><path d="M 151.859375 -3.070312 L 278.40625 17.753906 L 256.484375 150.960938 L 129.9375 130.136719 Z M 151.859375 -3.070312 " clip-rule="nonzero"/></clipPath><clipPath id="b2b882c41a"><path d="M 151.859375 -3.070312 L 278.40625 17.753906 L 256.484375 150.960938 L 129.9375 130.136719 Z M 151.859375 -3.070312 " clip-rule="nonzero"/></clipPath><clipPath id="fc925a1471"><path d="M 22 177 L 80 177 L 80 235 L 22 235 Z M 22 177 " clip-rule="nonzero"/></clipPath><clipPath id="a58e9498d5"><path d="M 13.410156 182.992188 L 73.929688 168.417969 L 88.503906 228.9375 L 27.984375 243.511719 Z M 13.410156 182.992188 " clip-rule="nonzero"/></clipPath><clipPath id="eb0a3d3eb5"><path d="M 13.410156 182.992188 L 73.929688 168.417969 L 88.503906 228.9375 L 27.984375 243.511719 Z M 13.410156 182.992188 " clip-rule="nonzero"/></clipPath><clipPath id="3442b29f7d"><path d="M 32 190 L 67 190 L 67 212 L 32 212 Z M 32 190 " clip-rule="nonzero"/></clipPath><clipPath id="26a0f384b3"><path d="M 13.410156 182.992188 L 73.929688 168.417969 L 88.503906 228.9375 L 27.984375 243.511719 Z M 13.410156 182.992188 " clip-rule="nonzero"/></clipPath><clipPath id="9a39715844"><path d="M 13.410156 182.992188 L 73.929688 168.417969 L 88.503906 228.9375 L 27.984375 243.511719 Z M 13.410156 182.992188 " clip-rule="nonzero"/></clipPath><clipPath id="1b84b24243"><path d="M 36 193 L 64 193 L 64 209 L 36 209 Z M 36 193 " clip-rule="nonzero"/></clipPath><clipPath id="9816a6acf8"><path d="M 13.410156 182.992188 L 73.929688 168.417969 L 88.503906 228.9375 L 27.984375 243.511719 Z M 13.410156 182.992188 " clip-rule="nonzero"/></clipPath><clipPath id="b910023517"><path d="M 13.410156 182.992188 L 73.929688 168.417969 L 88.503906 228.9375 L 27.984375 243.511719 Z M 13.410156 182.992188 " clip-rule="nonzero"/></clipPath><clipPath id="7499679c9d"><path d="M 28 201 L 76 201 L 76 221 L 28 221 Z M 28 201 " clip-rule="nonzero"/></clipPath><clipPath id="3711689a75"><path d="M 13.410156 182.992188 L 73.929688 168.417969 L 88.503906 228.9375 L 27.984375 243.511719 Z M 13.410156 182.992188 " clip-rule="nonzero"/></clipPath><clipPath id="8a4fdefd8e"><path d="M 13.410156 182.992188 L 73.929688 168.417969 L 88.503906 228.9375 L 27.984375 243.511719 Z M 13.410156 182.992188 " clip-rule="nonzero"/></clipPath><clipPath id="8f60c41e3e"><path d="M 37 207 L 68 207 L 68 220 L 37 220 Z M 37 207 " clip-rule="nonzero"/></clipPath><clipPath id="31efb21d4c"><path d="M 13.410156 182.992188 L 73.929688 168.417969 L 88.503906 228.9375 L 27.984375 243.511719 Z M 13.410156 182.992188 " clip-rule="nonzero"/></clipPath><clipPath id="e3e2965c1b"><path d="M 13.410156 182.992188 L 73.929688 168.417969 L 88.503906 228.9375 L 27.984375 243.511719 Z M 13.410156 182.992188 " clip-rule="nonzero"/></clipPath><clipPath id="eb47cf6eba"><path d="M 65 2 L 143 2 L 143 85 L 65 85 Z M 65 2 " clip-rule="nonzero"/></clipPath><clipPath id="50bee965c7"><path d="M 54.425781 15.507812 L 126.855469 -9.117188 L 152.683594 66.863281 L 80.257812 91.488281 Z M 54.425781 15.507812 " clip-rule="nonzero"/></clipPath><clipPath id="2a67b8e565"><path d="M 54.425781 15.507812 L 126.855469 -9.117188 L 152.683594 66.863281 L 80.257812 91.488281 Z M 54.425781 15.507812 " clip-rule="nonzero"/></clipPath><clipPath id="4c80f87d28"><path d="M 85 25 L 119 25 L 119 48 L 85 48 Z M 85 25 " clip-rule="nonzero"/></clipPath><clipPath id="e72d1feed0"><path d="M 54.425781 15.507812 L 126.855469 -9.117188 L 152.683594 66.863281 L 80.257812 91.488281 Z M 54.425781 15.507812 " clip-rule="nonzero"/></clipPath><clipPath id="88448b623d"><path d="M 54.425781 15.507812 L 126.855469 -9.117188 L 152.683594 66.863281 L 80.257812 91.488281 Z M 54.425781 15.507812 " clip-rule="nonzero"/></clipPath><clipPath id="7cf437e3d4"><path d="M 82 34 L 128 34 L 128 57 L 82 57 Z M 82 34 " clip-rule="nonzero"/></clipPath><clipPath id="bcc30443aa"><path d="M 54.425781 15.507812 L 126.855469 -9.117188 L 152.683594 66.863281 L 80.257812 91.488281 Z M 54.425781 15.507812 " clip-rule="nonzero"/></clipPath><clipPath id="550935a62f"><path d="M 54.425781 15.507812 L 126.855469 -9.117188 L 152.683594 66.863281 L 80.257812 91.488281 Z M 54.425781 15.507812 " clip-rule="nonzero"/></clipPath><clipPath id="0734e8416e"><path d="M 89 39 L 122 39 L 122 55 L 89 55 Z M 89 39 " clip-rule="nonzero"/></clipPath><clipPath id="26a18c2022"><path d="M 54.425781 15.507812 L 126.855469 -9.117188 L 152.683594 66.863281 L 80.257812 91.488281 Z M 54.425781 15.507812 " clip-rule="nonzero"/></clipPath><clipPath id="017f40edb0"><path d="M 54.425781 15.507812 L 126.855469 -9.117188 L 152.683594 66.863281 L 80.257812 91.488281 Z M 54.425781 15.507812 " clip-rule="nonzero"/></clipPath><clipPath id="44ceb90d73"><path d="M 88 28 L 115 28 L 115 45 L 88 45 Z M 88 28 " clip-rule="nonzero"/></clipPath><clipPath id="60583dab1b"><path d="M 54.425781 15.507812 L 126.855469 -9.117188 L 152.683594 66.863281 L 80.257812 91.488281 Z M 54.425781 15.507812 " clip-rule="nonzero"/></clipPath><clipPath id="41c2177949"><path d="M 54.425781 15.507812 L 126.855469 -9.117188 L 152.683594 66.863281 L 80.257812 91.488281 Z M 54.425781 15.507812 " clip-rule="nonzero"/></clipPath><clipPath id="452f66761a"><path d="M 291 211 L 369 211 L 369 294 L 291 294 Z M 291 211 " clip-rule="nonzero"/></clipPath><clipPath id="c0255aa26d"><path d="M 280.476562 224.371094 L 352.90625 199.746094 L 378.734375 275.726562 L 306.308594 300.347656 Z M 280.476562 224.371094 " clip-rule="nonzero"/></clipPath><clipPath id="abe69f9709"><path d="M 280.476562 224.371094 L 352.90625 199.746094 L 378.734375 275.726562 L 306.308594 300.347656 Z M 280.476562 224.371094 " clip-rule="nonzero"/></clipPath><clipPath id="6e81757865"><path d="M 311 234 L 345 234 L 345 257 L 311 257 Z M 311 234 " clip-rule="nonzero"/></clipPath><clipPath id="dd46791db7"><path d="M 280.476562 224.371094 L 352.90625 199.746094 L 378.734375 275.726562 L 306.308594 300.347656 Z M 280.476562 224.371094 " clip-rule="nonzero"/></clipPath><clipPath id="a42821a242"><path d="M 280.476562 224.371094 L 352.90625 199.746094 L 378.734375 275.726562 L 306.308594 300.347656 Z M 280.476562 224.371094 " clip-rule="nonzero"/></clipPath><clipPath id="f7bd0a4b3e"><path d="M 308 243 L 354 243 L 354 266 L 308 266 Z M 308 243 " clip-rule="nonzero"/></clipPath><clipPath id="05cc90255f"><path d="M 280.476562 224.371094 L 352.90625 199.746094 L 378.734375 275.726562 L 306.308594 300.347656 Z M 280.476562 224.371094 " clip-rule="nonzero"/></clipPath><clipPath id="fac316af72"><path d="M 280.476562 224.371094 L 352.90625 199.746094 L 378.734375 275.726562 L 306.308594 300.347656 Z M 280.476562 224.371094 " clip-rule="nonzero"/></clipPath><clipPath id="afc77b3470"><path d="M 315 248 L 348 248 L 348 264 L 315 264 Z M 315 248 " clip-rule="nonzero"/></clipPath><clipPath id="898eaf68b0"><path d="M 280.476562 224.371094 L 352.90625 199.746094 L 378.734375 275.726562 L 306.308594 300.347656 Z M 280.476562 224.371094 " clip-rule="nonzero"/></clipPath><clipPath id="b49cdaacfb"><path d="M 280.476562 224.371094 L 352.90625 199.746094 L 378.734375 275.726562 L 306.308594 300.347656 Z M 280.476562 224.371094 " clip-rule="nonzero"/></clipPath><clipPath id="788e569776"><path d="M 314 237 L 342 237 L 342 253 L 314 253 Z M 314 237 " clip-rule="nonzero"/></clipPath><clipPath id="19dd504ebb"><path d="M 280.476562 224.371094 L 352.90625 199.746094 L 378.734375 275.726562 L 306.308594 300.347656 Z M 280.476562 224.371094 " clip-rule="nonzero"/></clipPath><clipPath id="cf236c1305"><path d="M 280.476562 224.371094 L 352.90625 199.746094 L 378.734375 275.726562 L 306.308594 300.347656 Z M 280.476562 224.371094 " clip-rule="nonzero"/></clipPath></defs><g clip-path="url(#386b0eaf00)"><g clip-path="url(#885adf2e15)"><g clip-path="url(#a3398f9a19)"><path fill="#ffb72c" d="M 324.855469 104.746094 C 307.894531 111.179688 288.761719 102.632812 282.359375 85.757812 L 270.335938 54.070312 C 263.9375 37.195312 272.585938 18.105469 289.550781 11.671875 C 306.511719 5.238281 325.644531 13.785156 332.046875 30.660156 L 344.066406 62.347656 C 350.46875 79.222656 341.820312 98.308594 324.855469 104.746094 Z M 324.855469 104.746094 " fill-opacity="1" fill-rule="nonzero"/></g></g></g><g clip-path="url(#04721b2a15)"><g clip-path="url(#40aff98343)"><g clip-path="url(#baab9a14a9)"><path fill="#ff7f1d" d="M 326.394531 34.96875 C 327.472656 37.8125 326.027344 41 323.167969 42.085938 C 320.304688 43.171875 317.109375 41.746094 316.03125 38.898438 C 314.953125 36.050781 316.394531 32.863281 319.257812 31.78125 C 322.117188 30.695312 325.3125 32.121094 326.394531 34.96875 Z M 280.632812 46.433594 C 277.769531 47.519531 276.324219 50.703125 277.40625 53.550781 C 278.484375 56.398438 281.679688 57.824219 284.542969 56.738281 C 287.402344 55.652344 288.839844 52.445312 287.765625 49.621094 C 286.695312 46.792969 283.492188 45.347656 280.632812 46.433594 Z M 280.632812 46.433594 " fill-opacity="1" fill-rule="nonzero"/></g></g></g><g clip-path="url(#f41602509b)"><g clip-path="url(#5f9f9a28fa)"><g clip-path="url(#d6d3607aac)"><path fill="#2e2e2e" d="M 291.746094 42.785156 C 287.714844 44.316406 283.511719 41.867188 283.050781 41.59375 C 281.90625 40.910156 281.558594 39.425781 282.269531 38.277344 C 282.964844 37.15625 284.449219 36.78125 285.59375 37.464844 C 286.273438 37.875 288.566406 38.882812 290.097656 38.253906 C 291.070312 37.859375 291.785156 36.78125 292.261719 35.007812 C 292.605469 33.710938 293.917969 32.953125 295.21875 33.292969 C 296.515625 33.632812 297.273438 34.9375 296.929688 36.230469 C 295.820312 40.359375 293.570312 42.046875 291.863281 42.71875 C 291.851562 42.746094 291.789062 42.769531 291.746094 42.785156 Z M 309.335938 36.113281 C 311.03125 35.421875 313.292969 33.757812 314.402344 29.628906 C 314.746094 28.332031 313.96875 27.035156 312.691406 26.6875 C 311.390625 26.347656 310.078125 27.109375 309.730469 28.402344 C 309.269531 30.148438 308.542969 31.253906 307.570312 31.648438 C 306.019531 32.285156 303.746094 31.269531 303.066406 30.863281 C 301.921875 30.179688 300.453125 30.523438 299.742188 31.671875 C 299.050781 32.8125 299.398438 34.296875 300.519531 34.988281 C 300.992188 35.285156 305.1875 37.710938 309.21875 36.183594 C 309.25 36.144531 309.292969 36.128906 309.335938 36.113281 Z M 303.875 48.621094 C 305.574219 47.929688 307.832031 46.261719 308.941406 42.132812 C 309.289062 40.839844 308.507812 39.542969 307.230469 39.195312 C 305.929688 38.855469 304.617188 39.613281 304.273438 40.910156 C 303.8125 42.652344 303.085938 43.761719 302.109375 44.15625 C 300.582031 44.78125 298.285156 43.777344 297.605469 43.367188 C 296.460938 42.683594 294.992188 43.027344 294.28125 44.179688 C 293.589844 45.320312 293.9375 46.804688 295.0625 47.496094 C 295.53125 47.792969 299.726562 50.21875 303.757812 48.6875 C 303.792969 48.652344 303.835938 48.636719 303.875 48.621094 Z M 303.875 48.621094 " fill-opacity="1" fill-rule="nonzero"/></g></g></g><g clip-path="url(#3b0ef1ae73)"><g clip-path="url(#1d472bd1ca)"><g clip-path="url(#c74cf48a29)"><path fill="#05a552" d="M 339.085938 195.253906 L 267.804688 225.363281 C 264.5 226.761719 260.6875 225.203125 259.292969 221.898438 L 229.183594 150.617188 C 227.785156 147.3125 229.34375 143.5 232.648438 142.101562 L 303.929688 111.996094 C 307.234375 110.597656 311.046875 112.15625 312.445312 115.460938 L 342.550781 186.742188 C 343.949219 190.046875 342.390625 193.855469 339.085938 195.253906 Z M 339.085938 195.253906 " fill-opacity="1" fill-rule="nonzero"/></g></g></g><g clip-path="url(#e611dbd313)"><g clip-path="url(#23c5def31e)"><g clip-path="url(#cfd4eb2d8b)"><path fill="#ffffff" d="M 282.433594 160.476562 C 279.992188 165.832031 273.683594 168.167969 268.355469 165.734375 C 263.023438 163.300781 260.664062 156.984375 263.097656 151.652344 C 265.53125 146.324219 271.847656 143.964844 277.179688 146.398438 C 282.507812 148.828125 284.878906 155.121094 282.433594 160.476562 Z M 308.640625 160.09375 C 303.285156 157.652344 296.992188 160.019531 294.558594 165.351562 C 292.128906 170.683594 294.488281 177 299.816406 179.433594 C 305.148438 181.863281 311.464844 179.507812 313.898438 174.175781 C 316.332031 168.84375 313.996094 162.539062 308.640625 160.09375 Z M 308.640625 160.09375 " fill-opacity="1" fill-rule="nonzero"/></g></g></g><g clip-path="url(#f18bb8a89d)"><g clip-path="url(#de5b16e2d8)"><g clip-path="url(#f7f3bcb0a1)"><path fill="#05a552" d="M 316.71875 189.660156 C 315.203125 192.984375 311.300781 194.4375 307.980469 192.921875 C 304.65625 191.40625 303.203125 187.507812 304.71875 184.183594 C 306.234375 180.863281 310.132812 179.40625 313.457031 180.921875 C 316.765625 182.402344 318.234375 186.339844 316.71875 189.660156 Z M 258.328125 156.398438 C 255.003906 154.878906 251.105469 156.335938 249.589844 159.660156 C 248.074219 162.980469 249.527344 166.878906 252.851562 168.394531 C 256.171875 169.914062 260.074219 168.457031 261.589844 165.132812 C 263.105469 161.8125 261.648438 157.914062 258.328125 156.398438 Z M 258.328125 156.398438 " fill-opacity="1" fill-rule="nonzero"/></g></g></g><g clip-path="url(#79ee6bd277)"><g clip-path="url(#8629032cb7)"><g clip-path="url(#d01ea7801f)"><path fill="#2e2e2e" d="M 278.667969 158.757812 C 277.183594 162.007812 273.320312 163.449219 270.074219 161.964844 C 266.824219 160.484375 265.382812 156.621094 266.867188 153.375 C 268.347656 150.125 272.210938 148.683594 275.457031 150.164062 C 278.707031 151.648438 280.160156 155.484375 278.667969 158.757812 Z M 306.921875 163.863281 C 303.671875 162.382812 299.808594 163.824219 298.328125 167.070312 C 296.847656 170.320312 298.289062 174.183594 301.535156 175.664062 C 304.785156 177.144531 308.648438 175.703125 310.128906 172.457031 C 311.613281 169.207031 310.167969 165.34375 306.921875 163.863281 Z M 306.921875 163.863281 " fill-opacity="1" fill-rule="nonzero"/></g></g></g><g clip-path="url(#14512d802c)"><g clip-path="url(#78db2d4a1e)"><g clip-path="url(#088d93c4b2)"><path fill="#2e2e2e" d="M 281.972656 178.03125 C 281.75 177.929688 281.527344 177.828125 281.316406 177.699219 C 275.167969 174.503906 273.347656 167.65625 273.265625 167.378906 C 272.910156 165.988281 273.75 164.542969 275.140625 164.1875 C 276.53125 163.835938 277.976562 164.671875 278.328125 166.0625 C 278.371094 166.171875 279.699219 171.003906 283.75 173.089844 C 286.421875 174.457031 289.773438 174.398438 293.78125 172.902344 C 295.152344 172.390625 296.640625 173.070312 297.152344 174.441406 C 297.664062 175.8125 296.984375 177.300781 295.613281 177.8125 C 290.476562 179.753906 285.890625 179.820312 281.972656 178.03125 Z M 281.972656 178.03125 " fill-opacity="1" fill-rule="nonzero"/></g></g></g><g clip-path="url(#283d0edc35)"><path fill="#ff9441" d="M 214.183594 369.777344 C 196.363281 369.777344 184.355469 351.445312 191.582031 335.167969 C 204.839844 305.179688 234.859375 284.277344 269.753906 284.277344 C 304.652344 284.277344 334.671875 305.179688 347.960938 335.167969 C 355.183594 351.445312 343.179688 369.777344 325.359375 369.777344 Z M 214.183594 369.777344 " fill-opacity="1" fill-rule="nonzero"/></g><path fill="#ffffff" d="M 268.472656 318.4375 C 268.472656 326.046875 262.308594 332.210938 254.699219 332.210938 C 247.089844 332.210938 240.925781 326.046875 240.925781 318.4375 C 240.925781 310.828125 247.089844 304.664062 254.699219 304.664062 C 262.308594 304.664062 268.472656 310.828125 268.472656 318.4375 Z M 284.84375 304.664062 C 277.234375 304.664062 271.070312 310.828125 271.070312 318.4375 C 271.070312 326.046875 277.234375 332.210938 284.84375 332.210938 C 292.453125 332.210938 298.617188 326.046875 298.617188 318.4375 C 298.617188 310.828125 292.453125 304.664062 284.84375 304.664062 Z M 284.84375 304.664062 " fill-opacity="1" fill-rule="nonzero"/><path fill="#2e2e2e" d="M 269.53125 349.933594 C 262.820312 349.933594 257.394531 344.476562 257.394531 337.800781 C 257.394531 331.089844 262.851562 325.664062 269.53125 325.664062 C 276.242188 325.664062 281.664062 331.121094 281.664062 337.800781 C 281.664062 344.476562 276.242188 349.933594 269.53125 349.933594 Z M 269.53125 332.277344 C 266.480469 332.277344 264.007812 334.75 264.007812 337.800781 C 264.007812 340.847656 266.480469 343.320312 269.53125 343.320312 C 272.582031 343.320312 275.050781 340.847656 275.050781 337.800781 C 275.050781 334.75 272.582031 332.277344 269.53125 332.277344 Z M 269.53125 332.277344 " fill-opacity="1" fill-rule="nonzero"/><path fill="#ff9441" d="M 310.269531 335.167969 C 310.269531 339.886719 306.449219 343.738281 301.699219 343.738281 C 296.980469 343.738281 293.128906 339.917969 293.128906 335.167969 C 293.128906 330.414062 296.949219 326.59375 301.699219 326.59375 C 306.417969 326.59375 310.269531 330.445312 310.269531 335.167969 Z M 237.84375 326.59375 C 233.125 326.59375 229.269531 330.414062 229.269531 335.167969 C 229.269531 339.917969 233.09375 343.738281 237.84375 343.738281 C 242.59375 343.738281 246.414062 339.917969 246.414062 335.167969 C 246.414062 330.414062 242.5625 326.59375 237.84375 326.59375 Z M 237.84375 326.59375 " fill-opacity="1" fill-rule="nonzero"/><path fill="#2e2e2e" d="M 263.078125 318.4375 C 263.078125 323.09375 259.320312 326.851562 254.667969 326.851562 C 250.011719 326.851562 246.253906 323.09375 246.253906 318.4375 C 246.253906 313.785156 250.011719 310.027344 254.667969 310.027344 C 259.320312 310.027344 263.078125 313.785156 263.078125 318.4375 Z M 284.84375 310.027344 C 280.1875 310.027344 276.433594 313.785156 276.433594 318.4375 C 276.433594 323.09375 280.1875 326.851562 284.84375 326.851562 C 289.5 326.851562 293.253906 323.09375 293.253906 318.4375 C 293.253906 313.785156 289.5 310.027344 284.84375 310.027344 Z M 284.84375 310.027344 " fill-opacity="1" fill-rule="nonzero"/><g clip-path="url(#cdc804ef92)"><g clip-path="url(#351fa5b322)"><g clip-path="url(#13fc2bfb52)"><path fill="#84caed" d="M 70.386719 61.191406 C 77.402344 74.125 72.597656 90.292969 59.65625 97.296875 C 46.714844 104.300781 30.550781 99.496094 23.535156 86.5625 C 16.519531 73.628906 21.324219 57.460938 34.265625 50.457031 C 47.207031 43.449219 63.375 48.246094 70.386719 61.191406 Z M 70.386719 61.191406 " fill-opacity="1" fill-rule="nonzero"/></g></g></g><g clip-path="url(#d2997663f8)"><g clip-path="url(#14d311eb78)"><g clip-path="url(#54a0633fba)"><path fill="#ffffff" d="M 47.628906 69.070312 C 46.414062 73.148438 42.125 75.46875 38.039062 74.253906 C 33.957031 73.039062 31.628906 68.753906 32.839844 64.675781 C 34.050781 60.597656 38.34375 58.277344 42.425781 59.492188 C 46.511719 60.707031 48.839844 64.992188 47.628906 69.070312 Z M 58.601562 64.300781 C 54.519531 63.085938 50.226562 65.40625 49.015625 69.484375 C 47.804688 73.5625 50.132812 77.847656 54.21875 79.0625 C 58.300781 80.273438 62.59375 77.957031 63.804688 73.878906 C 65.015625 69.800781 62.6875 65.515625 58.601562 64.300781 Z M 58.601562 64.300781 " fill-opacity="1" fill-rule="nonzero"/></g></g></g><g clip-path="url(#8cc1908772)"><g clip-path="url(#50d6fdecce)"><g clip-path="url(#b6df247aec)"><path fill="#2e2e2e" d="M 44.746094 68.214844 C 44.007812 70.703125 41.390625 72.109375 38.90625 71.371094 C 36.425781 70.632812 35.003906 68.015625 35.742188 65.539062 C 36.476562 63.0625 39.097656 61.644531 41.578125 62.382812 C 44.0625 63.117188 45.488281 65.726562 44.746094 68.214844 Z M 57.746094 67.183594 C 55.253906 66.445312 52.644531 67.867188 51.90625 70.34375 C 51.171875 72.820312 52.59375 75.4375 55.074219 76.175781 C 57.554688 76.914062 60.175781 75.496094 60.914062 73.019531 C 61.648438 70.542969 60.238281 67.925781 57.746094 67.183594 Z M 57.746094 67.183594 " fill-opacity="1" fill-rule="nonzero"/></g></g></g><g clip-path="url(#f90bdb5252)"><g clip-path="url(#471e7e8e75)"><g clip-path="url(#a8ffdb84de)"><path fill="#84caed" d="M 67.382812 84.683594 C 66.632812 87.210938 63.972656 88.648438 61.4375 87.898438 C 58.90625 87.144531 57.460938 84.484375 58.214844 81.957031 C 58.964844 79.429688 61.625 77.992188 64.160156 78.742188 C 66.691406 79.496094 68.136719 82.15625 67.382812 84.683594 Z M 29.910156 68.554688 C 27.375 67.800781 24.714844 69.238281 23.964844 71.769531 C 23.210938 74.296875 24.65625 76.957031 27.1875 77.707031 C 29.722656 78.460938 32.382812 77.023438 33.132812 74.492188 C 33.882812 71.976562 32.441406 69.304688 29.910156 68.554688 Z M 29.910156 68.554688 " fill-opacity="1" fill-rule="nonzero"/></g></g></g><g clip-path="url(#02a2731163)"><g clip-path="url(#94db1b5c48)"><g clip-path="url(#b8c263d1db)"><path fill="#2e2e2e" d="M 58.988281 84.472656 C 43.628906 91.125 34.953125 81.390625 31.664062 76.339844 C 31.039062 75.378906 31.953125 74.164062 33.058594 74.492188 L 58.851562 82.160156 C 59.960938 82.476562 60.046875 84.011719 58.988281 84.472656 Z M 58.988281 84.472656 " fill-opacity="1" fill-rule="nonzero"/></g></g></g><g clip-path="url(#1e73ea16be)"><g clip-path="url(#69843d5405)"><g clip-path="url(#ada5f8902a)"><path fill="#3a5dc4" d="M 177.539062 154.507812 C 190.746094 143.261719 211.148438 150.523438 214.285156 167.582031 L 223.976562 220.257812 L 233.667969 272.9375 C 236.804688 289.996094 220.304688 304.027344 203.960938 298.210938 L 153.515625 280.261719 L 103.039062 262.304688 C 86.695312 256.488281 82.773438 235.164062 95.972656 223.945312 L 136.753906 189.226562 Z M 177.539062 154.507812 " fill-opacity="1" fill-rule="nonzero"/></g></g></g><g clip-path="url(#00067d3d47)"><g clip-path="url(#c60ab16526)"><g clip-path="url(#e59fc0a1c8)"><path fill="#ffffff" d="M 170.046875 228.878906 C 166.8125 237.96875 156.824219 242.710938 147.730469 239.476562 C 138.636719 236.242188 133.890625 226.257812 137.125 217.167969 C 140.359375 208.074219 150.347656 203.332031 159.4375 206.566406 C 168.53125 209.800781 173.28125 219.789062 170.046875 228.878906 Z M 195.4375 219.375 C 186.34375 216.140625 176.359375 220.882812 173.125 229.972656 C 169.890625 239.0625 174.636719 249.050781 183.730469 252.285156 C 192.824219 255.519531 202.808594 250.777344 206.042969 241.6875 C 209.277344 232.597656 204.53125 222.609375 195.4375 219.375 Z M 195.4375 219.375 " fill-opacity="1" fill-rule="nonzero"/></g></g></g><g clip-path="url(#2f955ad343)"><g clip-path="url(#8310a2d79f)"><g clip-path="url(#43ec71a57a)"><path fill="#3a5dc4" d="M 212.8125 266.585938 C 210.804688 272.222656 204.601562 275.171875 198.964844 273.164062 C 193.324219 271.15625 190.375 264.953125 192.378906 259.316406 C 194.386719 253.679688 200.589844 250.730469 206.230469 252.738281 C 211.871094 254.746094 214.816406 260.945312 212.8125 266.585938 Z M 130 225.617188 C 124.359375 223.609375 118.15625 226.558594 116.152344 232.195312 C 114.144531 237.835938 117.09375 244.035156 122.734375 246.042969 C 128.375 248.050781 134.578125 245.101562 136.582031 239.464844 C 138.589844 233.828125 135.640625 227.625 130 225.617188 Z M 130 225.617188 " fill-opacity="1" fill-rule="nonzero"/></g></g></g><g clip-path="url(#233fcabadb)"><g clip-path="url(#21ac7d1ad9)"><g clip-path="url(#900baaf6bd)"><path fill="#2e2e2e" d="M 163.597656 226.585938 C 161.632812 232.109375 155.539062 235.027344 149.984375 233.050781 C 144.429688 231.074219 141.539062 224.992188 143.511719 219.4375 C 145.488281 213.886719 151.574219 210.996094 157.128906 212.972656 C 162.683594 214.949219 165.5625 221.0625 163.597656 226.585938 Z M 193.144531 225.820312 C 187.621094 223.851562 181.507812 226.734375 179.53125 232.285156 C 177.554688 237.835938 180.449219 243.921875 186.003906 245.898438 C 191.554688 247.875 197.640625 244.984375 199.617188 239.433594 C 201.59375 233.878906 198.699219 227.796875 193.144531 225.820312 Z M 164.320312 254.90625 L 177.253906 250.628906 C 178.972656 250.074219 179.898438 248.199219 179.34375 246.480469 C 178.789062 244.757812 176.914062 243.832031 175.195312 244.386719 L 164.679688 247.875 L 158.5625 238.46875 C 157.578125 236.953125 155.527344 236.515625 154.011719 237.5 C 152.492188 238.480469 152.058594 240.53125 153.039062 242.046875 L 160.507812 253.585938 C 160.902344 254.210938 161.492188 254.648438 162.15625 254.882812 C 162.84375 255.128906 163.589844 255.132812 164.320312 254.90625 Z M 164.320312 254.90625 " fill-opacity="1" fill-rule="nonzero"/></g></g></g><g clip-path="url(#3f2abe9c56)"><g clip-path="url(#05a7212659)"><g clip-path="url(#2b928d23d8)"><path fill="#2e2e2e" d="M 204.40625 217.316406 L 152.292969 198.773438 C 150.59375 198.171875 149.703125 196.296875 150.308594 194.601562 C 150.910156 192.902344 152.785156 192.015625 154.480469 192.617188 L 206.597656 211.160156 C 208.292969 211.761719 209.183594 213.636719 208.582031 215.332031 C 207.976562 217.03125 206.132812 217.929688 204.40625 217.316406 Z M 204.40625 217.316406 " fill-opacity="1" fill-rule="nonzero"/></g></g></g><g clip-path="url(#537448b5e4)"><g clip-path="url(#ace09a9172)"><g clip-path="url(#b448867c13)"><path fill="#ffb72c" d="M 277.183594 230.679688 C 290.542969 238.84375 294.746094 256.292969 286.570312 269.644531 C 278.390625 282.996094 260.945312 287.199219 247.585938 279.03125 C 234.226562 270.867188 230.023438 253.417969 238.203125 240.066406 C 246.378906 226.714844 263.824219 222.503906 277.183594 230.679688 Z M 277.183594 230.679688 " fill-opacity="1" fill-rule="nonzero"/></g></g></g><g clip-path="url(#be963ed8a2)"><g clip-path="url(#0feeb00747)"><g clip-path="url(#6703363f2e)"><path fill="#ffffff" d="M 260.4375 250.074219 C 261.496094 254.476562 258.78125 258.898438 254.375 259.960938 C 249.964844 261.023438 245.535156 258.320312 244.476562 253.917969 C 243.417969 249.519531 246.128906 245.09375 250.539062 244.03125 C 254.945312 242.972656 259.375 245.675781 260.4375 250.074219 Z M 267.996094 239.828125 C 263.585938 240.890625 260.875 245.3125 261.933594 249.714844 C 262.996094 254.113281 267.421875 256.820312 271.832031 255.757812 C 276.242188 254.695312 278.953125 250.269531 277.894531 245.871094 C 276.835938 241.472656 272.40625 238.765625 267.996094 239.828125 Z M 267.996094 239.828125 " fill-opacity="1" fill-rule="nonzero"/></g></g></g><g clip-path="url(#c1eecff8b8)"><g clip-path="url(#70baf16128)"><g clip-path="url(#01cef768bf)"><path fill="#2e2e2e" d="M 257.328125 250.824219 C 257.972656 253.507812 256.3125 256.199219 253.636719 256.847656 C 250.957031 257.492188 248.25 255.839844 247.605469 253.164062 C 246.960938 250.492188 248.621094 247.789062 251.296875 247.144531 C 253.976562 246.5 256.679688 248.140625 257.328125 250.824219 Z M 268.746094 242.941406 C 266.058594 243.589844 264.410156 246.289062 265.054688 248.964844 C 265.699219 251.636719 268.40625 253.289062 271.082031 252.644531 C 273.761719 252 275.417969 249.296875 274.773438 246.621094 C 274.132812 243.949219 271.433594 242.292969 268.746094 242.941406 Z M 268.746094 242.941406 " fill-opacity="1" fill-rule="nonzero"/></g></g></g><g clip-path="url(#00da3e423b)"><g clip-path="url(#272b7cd228)"><g clip-path="url(#2e0d757cd1)"><path fill="#ff7f1d" d="M 286.953125 253.90625 C 287.613281 256.636719 285.929688 259.382812 283.195312 260.039062 C 280.460938 260.699219 277.714844 259.019531 277.058594 256.292969 C 276.398438 253.5625 278.082031 250.820312 280.816406 250.160156 C 283.550781 249.503906 286.296875 251.179688 286.953125 253.90625 Z M 243.847656 259.050781 C 241.113281 259.710938 239.429688 262.457031 240.085938 265.183594 C 240.746094 267.910156 243.492188 269.589844 246.226562 268.929688 C 248.960938 268.273438 250.640625 265.527344 249.984375 262.800781 C 249.332031 260.082031 246.582031 258.394531 243.847656 259.050781 Z M 243.847656 259.050781 " fill-opacity="1" fill-rule="nonzero"/></g></g></g><g clip-path="url(#c1e3c7312d)"><g clip-path="url(#39c46aeb45)"><g clip-path="url(#1609f1652f)"><path fill="#2e2e2e" d="M 279.113281 258.195312 C 268.519531 272.511719 255.339844 268.179688 249.617188 265.285156 C 248.527344 264.734375 248.722656 263.128906 249.914062 262.839844 L 277.753906 256.136719 C 278.941406 255.835938 279.84375 257.203125 279.113281 258.195312 Z M 279.113281 258.195312 " fill-opacity="1" fill-rule="nonzero"/></g></g></g><g clip-path="url(#a4b9c15118)"><g clip-path="url(#9ffc3c6878)"><g clip-path="url(#63a024ab88)"><path fill="#ff9441" d="M 142.847656 122.90625 L 128.316406 177.757812 C 127.644531 180.304688 125.027344 181.8125 122.484375 181.140625 L 67.632812 166.609375 C 65.089844 165.9375 63.578125 163.320312 64.25 160.777344 L 78.785156 105.925781 C 79.457031 103.378906 82.070312 101.871094 84.613281 102.542969 L 139.46875 117.074219 C 142.011719 117.746094 143.523438 120.363281 142.847656 122.90625 Z M 142.847656 122.90625 " fill-opacity="1" fill-rule="nonzero"/></g></g></g><g clip-path="url(#a1b71af5b6)"><g clip-path="url(#5864b1e5a0)"><g clip-path="url(#a9f211f2ae)"><path fill="#ffffff" d="M 97.253906 140.152344 C 99.261719 143.972656 97.785156 148.675781 93.980469 150.675781 C 90.179688 152.675781 85.457031 151.207031 83.457031 147.40625 C 81.457031 143.601562 82.925781 138.878906 86.726562 136.878906 C 90.53125 134.878906 95.246094 136.332031 97.253906 140.152344 Z M 108.792969 124.78125 C 104.972656 126.789062 103.523438 131.503906 105.523438 135.308594 C 107.519531 139.109375 112.246094 140.578125 116.046875 138.578125 C 119.851562 136.578125 121.320312 131.855469 119.320312 128.054688 C 117.320312 124.25 112.613281 122.773438 108.792969 124.78125 Z M 108.792969 124.78125 " fill-opacity="1" fill-rule="nonzero"/></g></g></g><g clip-path="url(#189f942825)"><g clip-path="url(#e10beab220)"><g clip-path="url(#d4cac72ddd)"><path fill="#ff9441" d="M 129.566406 133.367188 C 130.8125 135.738281 129.90625 138.652344 127.535156 139.898438 C 125.164062 141.144531 122.25 140.238281 121.003906 137.871094 C 119.757812 135.5 120.664062 132.585938 123.035156 131.339844 C 125.375 130.082031 128.320312 131 129.566406 133.367188 Z M 84.066406 152.300781 C 81.695312 153.546875 80.789062 156.460938 82.035156 158.832031 C 83.28125 161.203125 86.195312 162.109375 88.566406 160.863281 C 90.9375 159.617188 91.84375 156.699219 90.597656 154.332031 C 89.351562 151.960938 86.4375 151.054688 84.066406 152.300781 Z M 84.066406 152.300781 " fill-opacity="1" fill-rule="nonzero"/></g></g></g><g clip-path="url(#ca364672a9)"><g clip-path="url(#3103b5ae3f)"><g clip-path="url(#03b6ae9209)"><path fill="#2e2e2e" d="M 94.566406 141.566406 C 95.785156 143.882812 94.886719 146.769531 92.570312 147.988281 C 90.25 149.207031 87.363281 148.308594 86.144531 145.992188 C 84.925781 143.675781 85.824219 140.785156 88.140625 139.566406 C 90.457031 138.351562 93.335938 139.230469 94.566406 141.566406 Z M 110.207031 127.46875 C 107.890625 128.6875 106.992188 131.578125 108.210938 133.894531 C 109.429688 136.210938 112.316406 137.109375 114.632812 135.890625 C 116.953125 134.671875 117.847656 131.785156 116.628906 129.464844 C 115.414062 127.148438 112.523438 126.25 110.207031 127.46875 Z M 110.207031 127.46875 " fill-opacity="1" fill-rule="nonzero"/></g></g></g><g clip-path="url(#c1bbaf841b)"><g clip-path="url(#08ad6b8437)"><g clip-path="url(#f415c12eab)"><path fill="#2e2e2e" d="M 107.226562 148.296875 C 107.066406 148.378906 106.90625 148.464844 106.738281 148.53125 C 102.125 150.664062 97.335938 148.640625 97.140625 148.566406 C 96.175781 148.148438 95.714844 147.011719 96.132812 146.046875 C 96.550781 145.082031 97.683594 144.621094 98.648438 145.039062 C 98.730469 145.0625 102.128906 146.460938 105.15625 145.050781 C 107.148438 144.113281 108.621094 142.144531 109.550781 139.148438 C 109.871094 138.125 110.929688 137.566406 111.957031 137.882812 C 112.984375 138.203125 113.539062 139.265625 113.222656 140.289062 C 112.039062 144.140625 110.019531 146.828125 107.226562 148.296875 Z M 107.226562 148.296875 " fill-opacity="1" fill-rule="nonzero"/></g></g></g><g clip-path="url(#97333202f8)"><g clip-path="url(#bbed6038dc)"><g clip-path="url(#53f4f8b107)"><path fill="#05a552" d="M 174.035156 326.539062 C 177.777344 328.457031 180.800781 331.773438 182.257812 336.054688 C 185.25 344.855469 180.503906 354.4375 171.664062 357.441406 C 165.015625 359.703125 157.949219 357.609375 153.585938 352.695312 C 152.945312 359.066406 148.683594 364.820312 142.1875 367.027344 C 133.347656 370.035156 123.746094 365.332031 120.753906 356.53125 C 119.332031 352.347656 119.667969 347.984375 121.335938 344.246094 C 114.835938 343.699219 108.964844 339.425781 106.742188 332.894531 C 103.75 324.09375 108.496094 314.511719 117.335938 311.503906 C 118.699219 311.042969 120.0625 310.765625 121.414062 310.667969 C 120.949219 309.804688 120.53125 308.910156 120.210938 307.960938 C 117.21875 299.160156 121.964844 289.578125 130.804688 286.574219 C 139.644531 283.566406 149.246094 288.269531 152.238281 297.074219 C 152.601562 298.140625 152.851562 299.207031 152.984375 300.273438 C 154.375 299.234375 155.945312 298.378906 157.695312 297.785156 C 166.535156 294.78125 176.136719 299.484375 179.128906 308.285156 C 181.398438 315.011719 179.15625 322.191406 174.035156 326.539062 Z M 174.035156 326.539062 " fill-opacity="1" fill-rule="nonzero"/></g></g></g><g clip-path="url(#9a7498080d)"><g clip-path="url(#16b49c1940)"><g clip-path="url(#e7fe3ffe9c)"><path fill="#f5f5ef" d="M 141.929688 319.96875 C 143.332031 324.097656 141.101562 328.578125 136.96875 329.980469 C 132.839844 331.386719 128.332031 329.179688 126.9375 325.066406 C 125.539062 320.953125 127.765625 316.457031 131.894531 315.054688 C 136.027344 313.648438 140.53125 315.855469 141.929688 319.96875 Z M 148.300781 309.476562 C 144.152344 310.886719 141.941406 315.375 143.339844 319.488281 C 144.738281 323.601562 149.246094 325.808594 153.375 324.40625 C 157.507812 323 159.734375 318.503906 158.335938 314.390625 C 156.9375 310.277344 152.429688 308.070312 148.300781 309.476562 Z M 148.300781 309.476562 " fill-opacity="1" fill-rule="nonzero"/></g></g></g><g clip-path="url(#62b391e172)"><g clip-path="url(#2df1278e59)"><g clip-path="url(#75c2022afe)"><path fill="#05a552" d="M 167.738281 321.296875 C 168.605469 323.851562 167.222656 326.644531 164.65625 327.519531 C 162.089844 328.390625 159.289062 327.019531 158.421875 324.464844 C 157.550781 321.910156 158.9375 319.117188 161.503906 318.242188 C 164.070312 317.371094 166.867188 318.742188 167.738281 321.296875 Z M 126.761719 330.074219 C 124.191406 330.945312 122.808594 333.738281 123.679688 336.292969 C 124.546875 338.851562 127.347656 340.222656 129.914062 339.347656 C 132.480469 338.476562 133.863281 335.683594 132.996094 333.128906 C 132.121094 330.554688 129.34375 329.195312 126.761719 330.074219 Z M 126.761719 330.074219 " fill-opacity="1" fill-rule="nonzero"/></g></g></g><g clip-path="url(#dae7bff41a)"><g clip-path="url(#2a69081cd2)"><g clip-path="url(#ae72489681)"><path fill="#2e2e2e" d="M 148.726562 336.390625 C 141.789062 338.746094 135.042969 336.867188 131.519531 335.480469 C 130.535156 335.097656 130.066406 333.992188 130.453125 333.011719 C 130.839844 332.027344 131.949219 331.558594 132.933594 331.941406 C 139 334.332031 150.347656 336.421875 158.332031 323.304688 C 158.878906 322.402344 160.050781 322.117188 160.957031 322.660156 C 161.859375 323.199219 162.144531 324.367188 161.597656 325.273438 C 157.773438 331.59375 153.195312 334.871094 148.726562 336.390625 Z M 148.726562 336.390625 " fill-opacity="1" fill-rule="nonzero"/></g></g></g><g clip-path="url(#abf7241273)"><g clip-path="url(#9575b51b94)"><g clip-path="url(#41b9d7c21f)"><path fill="#2e2e2e" d="M 138.988281 320.96875 C 139.839844 323.472656 138.496094 326.214844 135.964844 327.078125 C 133.449219 327.933594 130.699219 326.601562 129.84375 324.078125 C 128.984375 321.554688 130.335938 318.832031 132.867188 317.96875 C 135.402344 317.109375 138.136719 318.464844 138.988281 320.96875 Z M 149.289062 312.386719 C 146.773438 313.242188 145.40625 315.972656 146.265625 318.496094 C 147.121094 321.015625 149.851562 322.355469 152.386719 321.492188 C 154.902344 320.636719 156.269531 317.90625 155.410156 315.386719 C 154.554688 312.863281 151.804688 311.53125 149.289062 312.386719 Z M 149.289062 312.386719 " fill-opacity="1" fill-rule="nonzero"/></g></g></g><g clip-path="url(#4e3bca9129)"><g clip-path="url(#074b69e0b7)"><g clip-path="url(#4cad77dba5)"><path fill="#84caed" d="M 37.421875 363.5625 C 15.796875 357.453125 3.097656 334.699219 9.21875 313.023438 L 20.714844 272.308594 C 26.835938 250.632812 49.5625 237.878906 71.1875 243.984375 C 92.8125 250.09375 105.511719 272.847656 99.390625 294.523438 L 87.894531 335.238281 C 81.773438 356.914062 59.046875 369.667969 37.421875 363.5625 Z M 37.421875 363.5625 " fill-opacity="1" fill-rule="nonzero"/></g></g></g><g clip-path="url(#32e8024b7b)"><g clip-path="url(#76ba72d0fd)"><g clip-path="url(#5fd2938489)"><path fill="#ff7f1d" d="M 90.582031 294.660156 C 89.546875 298.316406 85.753906 300.445312 82.105469 299.414062 C 78.457031 298.386719 76.339844 294.585938 77.371094 290.929688 C 78.402344 287.273438 82.195312 285.144531 85.84375 286.175781 C 89.492188 287.203125 91.613281 291.003906 90.582031 294.660156 Z M 36.601562 272.269531 C 32.953125 271.238281 29.160156 273.367188 28.125 277.023438 C 27.09375 280.683594 29.214844 284.480469 32.863281 285.511719 C 36.511719 286.539062 40.3125 284.386719 41.335938 280.753906 C 42.363281 277.125 40.25 273.300781 36.601562 272.269531 Z M 36.601562 272.269531 " fill-opacity="1" fill-rule="nonzero"/></g></g></g><g clip-path="url(#5e8ef59cf8)"><g clip-path="url(#fce0b75ab4)"><g clip-path="url(#f2168cfd26)"><path fill="#2e2e2e" d="M 50.347656 276.84375 C 45.210938 275.390625 42.84375 269.824219 42.585938 269.203125 C 41.953125 267.667969 42.707031 265.921875 44.265625 265.296875 C 45.789062 264.6875 47.539062 265.414062 48.167969 266.945312 C 48.542969 267.859375 50.078125 270.570312 52.066406 271.070312 C 53.324219 271.398438 54.832031 270.84375 56.617188 269.417969 C 57.917969 268.371094 59.785156 268.582031 60.824219 269.886719 C 61.867188 271.1875 61.65625 273.058594 60.351562 274.105469 C 56.195312 277.425781 52.707031 277.449219 50.515625 276.859375 C 50.484375 276.878906 50.402344 276.859375 50.347656 276.84375 Z M 72.773438 283.175781 C 74.972656 283.738281 78.453125 283.742188 82.609375 280.417969 C 83.914062 279.375 84.097656 277.496094 83.082031 276.199219 C 82.042969 274.894531 80.175781 274.6875 78.875 275.730469 C 77.125 277.140625 75.582031 277.710938 74.324219 277.386719 C 72.308594 276.875 70.800781 274.171875 70.425781 273.257812 C 69.796875 271.726562 68.078125 270.980469 66.523438 271.609375 C 64.992188 272.242188 64.238281 273.992188 64.84375 275.515625 C 65.09375 276.164062 67.464844 281.707031 72.605469 283.15625 C 72.667969 283.144531 72.722656 283.160156 72.773438 283.175781 Z M 58.09375 291.683594 C 60.292969 292.246094 63.769531 292.25 67.929688 288.925781 C 69.230469 287.882812 69.417969 286.003906 68.402344 284.707031 C 67.359375 283.40625 65.492188 283.195312 64.191406 284.238281 C 62.441406 285.648438 60.898438 286.222656 59.640625 285.894531 C 57.65625 285.390625 56.121094 282.679688 55.746094 281.769531 C 55.113281 280.234375 53.398438 279.492188 51.839844 280.117188 C 50.308594 280.75 49.558594 282.5 50.160156 284.023438 C 50.410156 284.671875 52.785156 290.214844 57.925781 291.664062 C 57.984375 291.652344 58.039062 291.667969 58.09375 291.683594 Z M 58.09375 291.683594 " fill-opacity="1" fill-rule="nonzero"/></g></g></g><g clip-path="url(#b86c442f5b)"><g clip-path="url(#7510d813ee)"><g clip-path="url(#79dfc16ad8)"><path fill="#f69aa2" d="M 246.53125 100.742188 C 250.546875 106.554688 252.394531 113.867188 251.160156 121.375 C 248.621094 136.808594 234.023438 147.265625 218.578125 144.722656 C 206.964844 142.8125 198.175781 134.113281 195.613281 123.359375 C 189.625 132.308594 178.765625 137.472656 167.421875 135.605469 C 151.972656 133.0625 141.5 118.476562 144.039062 103.046875 C 145.246094 95.714844 149.195312 89.507812 154.621094 85.28125 C 145.441406 79.320312 140.144531 68.328125 142.027344 56.875 C 144.566406 41.445312 159.164062 30.984375 174.609375 33.527344 C 176.984375 33.917969 179.222656 34.59375 181.300781 35.511719 C 181.296875 33.867188 181.386719 32.203125 181.660156 30.542969 C 184.199219 15.113281 198.796875 4.652344 214.242188 7.195312 C 229.6875 9.738281 240.160156 24.324219 237.621094 39.753906 C 237.316406 41.621094 236.839844 43.402344 236.195312 45.09375 C 239.074219 44.65625 242.066406 44.628906 245.125 45.132812 C 260.574219 47.675781 271.046875 62.261719 268.507812 77.691406 C 266.539062 89.46875 257.542969 98.347656 246.53125 100.742188 Z M 246.53125 100.742188 " fill-opacity="1" fill-rule="nonzero"/></g></g></g><g clip-path="url(#3977c68b30)"><g clip-path="url(#0876da76f4)"><g clip-path="url(#7ea61bad7d)"><path fill="#f5f5ef" d="M 204.269531 65.566406 C 203.078125 72.804688 196.234375 77.683594 189.015625 76.496094 C 181.796875 75.308594 176.882812 68.464844 178.070312 61.253906 C 179.257812 54.042969 186.105469 49.132812 193.324219 50.324219 C 200.542969 51.511719 205.457031 58.355469 204.269531 65.566406 Z M 221.988281 55.039062 C 214.738281 53.847656 207.921875 58.757812 206.734375 65.96875 C 205.546875 73.179688 210.460938 80.023438 217.679688 81.210938 C 224.898438 82.402344 231.746094 77.492188 232.933594 70.28125 C 234.121094 63.070312 229.207031 56.226562 221.988281 55.039062 Z M 221.988281 55.039062 " fill-opacity="1" fill-rule="nonzero"/></g></g></g><g clip-path="url(#d1645f332a)"><g clip-path="url(#cd5a23c0c0)"><g clip-path="url(#820f97d9d3)"><path fill="#ff7f1d" d="M 241.371094 87.976562 C 240.632812 92.457031 236.378906 95.507812 231.894531 94.769531 C 227.410156 94.03125 224.355469 89.777344 225.09375 85.296875 C 225.832031 80.816406 230.085938 77.769531 234.570312 78.507812 C 239.054688 79.246094 242.109375 83.496094 241.371094 87.976562 Z M 173.851562 68.542969 C 169.363281 67.804688 165.109375 70.855469 164.375 75.335938 C 163.636719 79.816406 166.6875 84.066406 171.175781 84.804688 C 175.660156 85.542969 179.914062 82.496094 180.652344 78.015625 C 181.394531 73.503906 178.367188 69.285156 173.851562 68.542969 Z M 173.851562 68.542969 " fill-opacity="1" fill-rule="nonzero"/></g></g></g><g clip-path="url(#6a7f3d8c20)"><g clip-path="url(#a3d28640e1)"><g clip-path="url(#067706bb3b)"><path fill="#2e2e2e" d="M 201.324219 95.316406 C 189.207031 93.320312 180.722656 85.1875 176.609375 80.335938 C 175.457031 78.988281 175.636719 76.976562 176.984375 75.824219 C 178.332031 74.675781 180.347656 74.855469 181.5 76.203125 C 188.574219 84.558594 203.699219 96.648438 225.875 83.507812 C 227.398438 82.597656 229.359375 83.105469 230.269531 84.625 C 231.175781 86.148438 230.671875 88.105469 229.148438 89.011719 C 218.492188 95.367188 209.136719 96.601562 201.324219 95.316406 Z M 201.324219 95.316406 " fill-opacity="1" fill-rule="nonzero"/></g></g></g><g clip-path="url(#61dec69f8b)"><g clip-path="url(#36f650e3f7)"><g clip-path="url(#b2b882c41a)"><path fill="#2e2e2e" d="M 199.128906 64.71875 C 198.40625 69.109375 194.253906 72.113281 189.828125 71.386719 C 185.429688 70.664062 182.421875 66.511719 183.148438 62.089844 C 183.878906 57.667969 188.027344 54.691406 192.453125 55.421875 C 196.878906 56.148438 199.851562 60.328125 199.128906 64.71875 Z M 221.148438 60.144531 C 216.75 59.421875 212.570312 62.390625 211.84375 66.8125 C 211.117188 71.234375 214.09375 75.378906 218.519531 76.109375 C 222.917969 76.832031 227.097656 73.863281 227.824219 69.441406 C 228.550781 65.019531 225.542969 60.867188 221.148438 60.144531 Z M 221.148438 60.144531 " fill-opacity="1" fill-rule="nonzero"/></g></g></g><g clip-path="url(#fc925a1471)"><g clip-path="url(#a58e9498d5)"><g clip-path="url(#eb0a3d3eb5)"><path fill="#ffb72c" d="M 65.757812 181.792969 C 79.117188 189.957031 83.320312 207.40625 75.140625 220.757812 C 66.964844 234.109375 49.519531 238.3125 36.160156 230.144531 C 22.800781 221.980469 18.597656 204.535156 26.773438 191.179688 C 34.953125 177.828125 52.398438 173.617188 65.757812 181.792969 Z M 65.757812 181.792969 " fill-opacity="1" fill-rule="nonzero"/></g></g></g><g clip-path="url(#3442b29f7d)"><g clip-path="url(#26a0f384b3)"><g clip-path="url(#9a39715844)"><path fill="#ffffff" d="M 49.007812 201.191406 C 50.070312 205.589844 47.355469 210.015625 42.949219 211.078125 C 38.539062 212.136719 34.109375 209.433594 33.050781 205.035156 C 31.988281 200.632812 34.703125 196.207031 39.109375 195.148438 C 43.519531 194.085938 47.949219 196.789062 49.007812 201.191406 Z M 56.570312 190.941406 C 52.160156 192.003906 49.449219 196.429688 50.507812 200.828125 C 51.566406 205.230469 55.996094 207.933594 60.40625 206.871094 C 64.8125 205.808594 67.527344 201.386719 66.46875 196.984375 C 65.40625 192.585938 60.976562 189.878906 56.570312 190.941406 Z M 56.570312 190.941406 " fill-opacity="1" fill-rule="nonzero"/></g></g></g><g clip-path="url(#1b84b24243)"><g clip-path="url(#9816a6acf8)"><g clip-path="url(#b910023517)"><path fill="#2e2e2e" d="M 45.902344 201.9375 C 46.546875 204.621094 44.886719 207.316406 42.207031 207.960938 C 39.53125 208.605469 36.824219 206.953125 36.179688 204.28125 C 35.535156 201.605469 37.195312 198.902344 39.871094 198.257812 C 42.550781 197.613281 45.253906 199.253906 45.902344 201.9375 Z M 57.320312 194.054688 C 54.628906 194.703125 52.984375 197.40625 53.628906 200.078125 C 54.269531 202.75 56.976562 204.402344 59.65625 203.757812 C 62.335938 203.113281 63.992188 200.410156 63.347656 197.738281 C 62.703125 195.0625 60.007812 193.40625 57.320312 194.054688 Z M 57.320312 194.054688 " fill-opacity="1" fill-rule="nonzero"/></g></g></g><g clip-path="url(#7499679c9d)"><g clip-path="url(#3711689a75)"><g clip-path="url(#8a4fdefd8e)"><path fill="#ff7f1d" d="M 75.527344 205.023438 C 76.183594 207.75 74.5 210.496094 71.769531 211.152344 C 69.035156 211.8125 66.289062 210.132812 65.628906 207.40625 C 64.972656 204.675781 66.65625 201.933594 69.390625 201.273438 C 72.121094 200.617188 74.871094 202.292969 75.527344 205.023438 Z M 32.421875 210.167969 C 29.6875 210.824219 28.003906 213.570312 28.660156 216.296875 C 29.316406 219.027344 32.066406 220.703125 34.800781 220.046875 C 37.53125 219.386719 39.214844 216.640625 38.558594 213.914062 C 37.902344 211.195312 35.152344 209.507812 32.421875 210.167969 Z M 32.421875 210.167969 " fill-opacity="1" fill-rule="nonzero"/></g></g></g><g clip-path="url(#8f60c41e3e)"><g clip-path="url(#31efb21d4c)"><g clip-path="url(#e3e2965c1b)"><path fill="#2e2e2e" d="M 67.6875 209.308594 C 57.09375 223.625 43.910156 219.292969 38.1875 216.402344 C 37.101562 215.847656 37.296875 214.242188 38.488281 213.953125 L 66.328125 207.25 C 67.515625 206.953125 68.414062 208.316406 67.6875 209.308594 Z M 67.6875 209.308594 " fill-opacity="1" fill-rule="nonzero"/></g></g></g><g clip-path="url(#eb47cf6eba)"><g clip-path="url(#50bee965c7)"><g clip-path="url(#2a67b8e565)"><path fill="#05a552" d="M 133.359375 43.335938 C 137.105469 45.253906 140.128906 48.570312 141.582031 52.851562 C 144.574219 61.652344 139.828125 71.234375 130.988281 74.238281 C 124.34375 76.5 117.277344 74.40625 112.914062 69.488281 C 112.273438 75.863281 108.007812 81.617188 101.515625 83.824219 C 92.675781 86.832031 83.070312 82.125 80.078125 73.324219 C 78.660156 69.144531 78.996094 64.78125 80.664062 61.042969 C 74.164062 60.496094 68.292969 56.222656 66.070312 49.691406 C 63.078125 40.886719 67.824219 31.308594 76.664062 28.300781 C 78.023438 27.839844 79.390625 27.5625 80.742188 27.464844 C 80.277344 26.601562 79.859375 25.703125 79.535156 24.757812 C 76.542969 15.957031 81.289062 6.375 90.128906 3.367188 C 98.96875 0.363281 108.574219 5.066406 111.566406 13.867188 C 111.925781 14.933594 112.175781 16.003906 112.3125 17.070312 C 113.703125 16.03125 115.273438 15.175781 117.023438 14.582031 C 125.863281 11.574219 135.464844 16.28125 138.457031 25.082031 C 140.726562 31.804688 138.480469 38.988281 133.359375 43.335938 Z M 133.359375 43.335938 " fill-opacity="1" fill-rule="nonzero"/></g></g></g><g clip-path="url(#4c80f87d28)"><g clip-path="url(#e72d1feed0)"><g clip-path="url(#88448b623d)"><path fill="#f5f5ef" d="M 101.257812 36.765625 C 102.660156 40.894531 100.429688 45.375 96.296875 46.777344 C 92.164062 48.183594 87.660156 45.976562 86.261719 41.863281 C 84.863281 37.75 87.089844 33.253906 91.222656 31.847656 C 95.351562 30.445312 99.859375 32.652344 101.257812 36.765625 Z M 107.628906 26.273438 C 103.480469 27.683594 101.269531 32.171875 102.667969 36.285156 C 104.066406 40.398438 108.570312 42.605469 112.703125 41.199219 C 116.832031 39.796875 119.058594 35.300781 117.660156 31.1875 C 116.261719 27.074219 111.757812 24.867188 107.628906 26.273438 Z M 107.628906 26.273438 " fill-opacity="1" fill-rule="nonzero"/></g></g></g><g clip-path="url(#7cf437e3d4)"><g clip-path="url(#bcc30443aa)"><g clip-path="url(#550935a62f)"><path fill="#05a552" d="M 127.0625 38.09375 C 127.933594 40.648438 126.550781 43.441406 123.984375 44.3125 C 121.414062 45.1875 118.617188 43.816406 117.75 41.261719 C 116.878906 38.703125 118.261719 35.910156 120.828125 35.039062 C 123.398438 34.167969 126.195312 35.539062 127.0625 38.09375 Z M 86.085938 46.867188 C 83.519531 47.742188 82.136719 50.535156 83.003906 53.089844 C 83.875 55.644531 86.671875 57.015625 89.238281 56.144531 C 91.808594 55.273438 93.191406 52.480469 92.320312 49.921875 C 91.445312 47.351562 88.671875 45.992188 86.085938 46.867188 Z M 86.085938 46.867188 " fill-opacity="1" fill-rule="nonzero"/></g></g></g><g clip-path="url(#0734e8416e)"><g clip-path="url(#26a18c2022)"><g clip-path="url(#017f40edb0)"><path fill="#2e2e2e" d="M 108.050781 53.183594 C 101.117188 55.542969 94.371094 53.664062 90.84375 52.273438 C 89.863281 51.890625 89.390625 50.789062 89.777344 49.804688 C 90.164062 48.824219 91.277344 48.351562 92.257812 48.734375 C 98.328125 51.128906 109.675781 53.21875 117.65625 40.101562 C 118.203125 39.199219 119.378906 38.914062 120.28125 39.453125 C 121.1875 39.996094 121.472656 41.164062 120.925781 42.066406 C 117.101562 48.390625 112.523438 51.664062 108.050781 53.183594 Z M 108.050781 53.183594 " fill-opacity="1" fill-rule="nonzero"/></g></g></g><g clip-path="url(#44ceb90d73)"><g clip-path="url(#60583dab1b)"><g clip-path="url(#41c2177949)"><path fill="#2e2e2e" d="M 98.316406 37.765625 C 99.167969 40.269531 97.824219 43.011719 95.289062 43.871094 C 92.773438 44.726562 90.027344 43.394531 89.167969 40.875 C 88.3125 38.351562 89.660156 35.628906 92.195312 34.765625 C 94.726562 33.90625 97.464844 35.257812 98.316406 37.765625 Z M 108.617188 29.183594 C 106.101562 30.039062 104.734375 32.769531 105.589844 35.292969 C 106.449219 37.8125 109.179688 39.152344 111.710938 38.289062 C 114.226562 37.433594 115.59375 34.703125 114.738281 32.183594 C 113.878906 29.660156 111.132812 28.328125 108.617188 29.183594 Z M 108.617188 29.183594 " fill-opacity="1" fill-rule="nonzero"/></g></g></g><g clip-path="url(#452f66761a)"><g clip-path="url(#c0255aa26d)"><g clip-path="url(#abe69f9709)"><path fill="#05a552" d="M 359.410156 252.199219 C 363.15625 254.117188 366.179688 257.429688 367.632812 261.714844 C 370.625 270.515625 365.878906 280.097656 357.039062 283.101562 C 350.394531 285.363281 343.328125 283.269531 338.964844 278.351562 C 338.324219 284.726562 334.058594 290.480469 327.566406 292.6875 C 318.726562 295.691406 309.121094 290.988281 306.128906 282.1875 C 304.710938 278.007812 305.046875 273.644531 306.714844 269.90625 C 300.214844 269.359375 294.34375 265.085938 292.121094 258.550781 C 289.128906 249.75 293.875 240.167969 302.714844 237.164062 C 304.074219 236.703125 305.441406 236.425781 306.792969 236.324219 C 306.328125 235.464844 305.910156 234.566406 305.585938 233.621094 C 302.59375 224.820312 307.339844 215.238281 316.179688 212.230469 C 325.019531 209.226562 334.625 213.929688 337.617188 222.730469 C 337.976562 223.796875 338.226562 224.863281 338.363281 225.933594 C 339.753906 224.894531 341.324219 224.039062 343.074219 223.445312 C 351.914062 220.4375 361.515625 225.140625 364.507812 233.945312 C 366.777344 240.667969 364.53125 247.851562 359.410156 252.199219 Z M 359.410156 252.199219 " fill-opacity="1" fill-rule="nonzero"/></g></g></g><g clip-path="url(#6e81757865)"><g clip-path="url(#dd46791db7)"><g clip-path="url(#a42821a242)"><path fill="#f5f5ef" d="M 327.308594 245.628906 C 328.710938 249.757812 326.480469 254.234375 322.347656 255.640625 C 318.214844 257.046875 313.710938 254.839844 312.3125 250.726562 C 310.914062 246.613281 313.140625 242.117188 317.273438 240.710938 C 321.402344 239.308594 325.910156 241.515625 327.308594 245.628906 Z M 333.679688 235.136719 C 329.53125 236.546875 327.320312 241.035156 328.71875 245.148438 C 330.117188 249.261719 334.621094 251.46875 338.753906 250.0625 C 342.882812 248.660156 345.109375 244.164062 343.710938 240.050781 C 342.3125 235.9375 337.808594 233.730469 333.679688 235.136719 Z M 333.679688 235.136719 " fill-opacity="1" fill-rule="nonzero"/></g></g></g><g clip-path="url(#f7bd0a4b3e)"><g clip-path="url(#05cc90255f)"><g clip-path="url(#fac316af72)"><path fill="#05a552" d="M 353.113281 246.957031 C 353.984375 249.511719 352.601562 252.304688 350.035156 253.175781 C 347.464844 254.050781 344.667969 252.679688 343.800781 250.121094 C 342.929688 247.566406 344.3125 244.773438 346.878906 243.902344 C 349.449219 243.027344 352.246094 244.398438 353.113281 246.957031 Z M 312.136719 255.730469 C 309.570312 256.605469 308.1875 259.398438 309.054688 261.953125 C 309.925781 264.507812 312.722656 265.878906 315.289062 265.007812 C 317.859375 264.132812 319.242188 261.339844 318.371094 258.785156 C 317.496094 256.214844 314.722656 254.851562 312.136719 255.730469 Z M 312.136719 255.730469 " fill-opacity="1" fill-rule="nonzero"/></g></g></g><g clip-path="url(#afc77b3470)"><g clip-path="url(#898eaf68b0)"><g clip-path="url(#b49cdaacfb)"><path fill="#2e2e2e" d="M 334.101562 262.046875 C 327.167969 264.40625 320.421875 262.527344 316.894531 261.136719 C 315.914062 260.753906 315.441406 259.648438 315.828125 258.667969 C 316.214844 257.6875 317.328125 257.214844 318.308594 257.597656 C 324.378906 259.992188 335.726562 262.082031 343.707031 248.964844 C 344.253906 248.0625 345.429688 247.773438 346.332031 248.316406 C 347.238281 248.859375 347.523438 250.027344 346.976562 250.929688 C 343.152344 257.253906 338.574219 260.527344 334.101562 262.046875 Z M 334.101562 262.046875 " fill-opacity="1" fill-rule="nonzero"/></g></g></g><g clip-path="url(#788e569776)"><g clip-path="url(#19dd504ebb)"><g clip-path="url(#cf236c1305)"><path fill="#2e2e2e" d="M 324.367188 246.628906 C 325.21875 249.132812 323.875 251.875 321.339844 252.734375 C 318.824219 253.589844 316.078125 252.257812 315.21875 249.738281 C 314.363281 247.214844 315.710938 244.492188 318.246094 243.628906 C 320.777344 242.769531 323.515625 244.121094 324.367188 246.628906 Z M 334.667969 238.046875 C 332.152344 238.902344 330.785156 241.632812 331.640625 244.152344 C 332.5 246.675781 335.230469 248.011719 337.761719 247.152344 C 340.28125 246.296875 341.644531 243.566406 340.789062 241.042969 C 339.929688 238.523438 337.183594 237.191406 334.667969 238.046875 Z M 334.667969 238.046875 " fill-opacity="1" fill-rule="nonzero"/></g></g></g></svg>